<mxfile host="app.diagrams.net" agent="Mozilla/5.0 (X11; Linux x86_64) AppleWebKit/537.36 (KHTML, like Gecko) Chrome/131.0.0.0 Safari/537.36" version="26.0.4">
  <diagram name="Page-1" id="51S0xqju7tH6sFBOYpxy">
    <mxGraphModel dx="1368" dy="760" grid="0" gridSize="10" guides="1" tooltips="1" connect="1" arrows="1" fold="1" page="1" pageScale="1" pageWidth="827" pageHeight="1169" math="0" shadow="0">
      <root>
        <mxCell id="0" />
        <mxCell id="1" parent="0" />
        <mxCell id="08cGzO6X7hly_oXOcYE4-4" value="" style="shape=actor;whiteSpace=wrap;html=1;" vertex="1" parent="1">
          <mxGeometry x="420.5" y="50" width="40" height="60" as="geometry" />
        </mxCell>
        <mxCell id="08cGzO6X7hly_oXOcYE4-5" value="" style="sketch=0;points=[[0,0,0],[0.25,0,0],[0.5,0,0],[0.75,0,0],[1,0,0],[0,1,0],[0.25,1,0],[0.5,1,0],[0.75,1,0],[1,1,0],[0,0.25,0],[0,0.5,0],[0,0.75,0],[1,0.25,0],[1,0.5,0],[1,0.75,0]];outlineConnect=0;fontColor=#232F3E;fillColor=light-dark(#000000, #0e9d86);strokeColor=#ffffff;dashed=0;verticalLabelPosition=bottom;verticalAlign=top;align=center;html=1;fontSize=12;fontStyle=0;shape=mxgraph.aws4.resourceIcon;resIcon=mxgraph.aws4.neuron_ml_sdk;direction=south;" vertex="1" parent="1">
          <mxGeometry x="361" y="220" width="159" height="80" as="geometry" />
        </mxCell>
        <mxCell id="08cGzO6X7hly_oXOcYE4-6" value="" style="shape=singleArrow;whiteSpace=wrap;html=1;" vertex="1" parent="1">
          <mxGeometry x="270" y="230" width="70" height="50" as="geometry" />
        </mxCell>
        <mxCell id="08cGzO6X7hly_oXOcYE4-7" value="" style="shape=singleArrow;whiteSpace=wrap;html=1;" vertex="1" parent="1">
          <mxGeometry x="540" y="230" width="70" height="50" as="geometry" />
        </mxCell>
        <mxCell id="08cGzO6X7hly_oXOcYE4-8" value="&lt;b&gt;INPUT&lt;/b&gt;" style="text;html=1;align=center;verticalAlign=middle;whiteSpace=wrap;rounded=0;" vertex="1" parent="1">
          <mxGeometry x="210" y="240" width="60" height="30" as="geometry" />
        </mxCell>
        <mxCell id="08cGzO6X7hly_oXOcYE4-9" value="&lt;b&gt;OUTPUT&lt;/b&gt;" style="text;html=1;align=center;verticalAlign=middle;whiteSpace=wrap;rounded=0;" vertex="1" parent="1">
          <mxGeometry x="620" y="240" width="60" height="30" as="geometry" />
        </mxCell>
        <mxCell id="08cGzO6X7hly_oXOcYE4-10" value="&lt;b&gt;SYSTEM&lt;/b&gt;" style="text;html=1;align=center;verticalAlign=middle;whiteSpace=wrap;rounded=0;" vertex="1" parent="1">
          <mxGeometry x="410.5" y="300" width="60" height="30" as="geometry" />
        </mxCell>
        <mxCell id="08cGzO6X7hly_oXOcYE4-11" value="" style="shape=singleArrow;direction=south;whiteSpace=wrap;html=1;" vertex="1" parent="1">
          <mxGeometry x="417.5" y="120" width="46" height="80" as="geometry" />
        </mxCell>
        <mxCell id="08cGzO6X7hly_oXOcYE4-12" value="" style="shape=image;html=1;verticalAlign=top;verticalLabelPosition=bottom;labelBackgroundColor=#ffffff;imageAspect=0;aspect=fixed;image=https://cdn1.iconfinder.com/data/icons/seo-and-web-development-6/32/development_search_magnifier_magnifying_glass_loupe-67-128.png" vertex="1" parent="1">
          <mxGeometry x="460.5" y="140" width="30" height="30" as="geometry" />
        </mxCell>
        <mxCell id="08cGzO6X7hly_oXOcYE4-13" value="&lt;b&gt;TESTING&lt;/b&gt;" style="text;html=1;align=center;verticalAlign=middle;whiteSpace=wrap;rounded=0;" vertex="1" parent="1">
          <mxGeometry x="450.5" y="160" width="60" height="30" as="geometry" />
        </mxCell>
      </root>
    </mxGraphModel>
  </diagram>
</mxfile>
